<?xml version="1.0" encoding="UTF-8" standalone="no"?>
<!-- Created with Inkscape (http://www.inkscape.org/) -->

<svg
   width="234.24466"
   height="97.858276"
   viewBox="0 0 234.24466 97.858276"
   version="1.1"
   id="svg1"
   sodipodi:docname="nsd_logo_all_path.svg"
   inkscape:version="1.3.2 (091e20e, 2023-11-25, custom)"
   xmlns:inkscape="http://www.inkscape.org/namespaces/inkscape"
   xmlns:sodipodi="http://sodipodi.sourceforge.net/DTD/sodipodi-0.dtd"
   xmlns="http://www.w3.org/2000/svg"
   xmlns:svg="http://www.w3.org/2000/svg">
  <sodipodi:namedview
     id="namedview1"
     pagecolor="#ffffff"
     bordercolor="#000000"
     borderopacity="0.25"
     inkscape:showpageshadow="2"
     inkscape:pageopacity="0.0"
     inkscape:pagecheckerboard="0"
     inkscape:deskcolor="#d1d1d1"
     inkscape:zoom="3.6799131"
     inkscape:cx="117.12233"
     inkscape:cy="49.050071"
     inkscape:window-width="1920"
     inkscape:window-height="986"
     inkscape:window-x="-11"
     inkscape:window-y="-11"
     inkscape:window-maximized="1"
     inkscape:current-layer="g8" />
  <defs
     id="defs1" />
  <g
     id="layer1"
     transform="translate(-400.24979,-1315.0004)">
    <g
       transform="translate(315,1098)"
       id="g8">
      <path
         style="font-weight:300;font-size:44.077px;font-family:Outfit;-inkscape-font-specification:'Outfit Light';stroke-width:1.00175"
         d="m 85.399047,281.48215 v -30.32498 h 2.292004 l 0.925617,3.8347 v 26.49028 z m 20.980653,0 -19.173496,-26.00543 0.484847,-4.31955 19.129419,26.00543 z m 0,0 -0.96969,-3.65839 v -26.66659 h 3.26169 v 30.32498 z m 23.66931,0.44077 q -3.21762,0 -5.99447,-1.19008 -2.73278,-1.23416 -4.8044,-3.34985 -2.07162,-2.15978 -3.26169,-4.9807 -1.14601,-2.86501 -1.14601,-6.12671 0,-3.30577 1.14601,-6.1267 1.146,-2.82093 3.21762,-4.93662 2.07162,-2.1157 4.80439,-3.30578 2.73277,-1.19008 5.95039,-1.19008 3.21763,0 5.9504,1.19008 2.77685,1.19008 4.84847,3.30578 2.07162,2.11569 3.21762,4.9807 1.146,2.82092 1.146,6.1267 0,3.2617 -1.146,6.1267 -1.146,2.82093 -3.21762,4.93663 -2.02754,2.11569 -4.76032,3.34985 -2.73277,1.19008 -5.95039,1.19008 z m -0.0882,-3.12947 q 3.43801,0 6.08263,-1.63085 2.6887,-1.63085 4.18732,-4.45178 1.54269,-2.82092 1.54269,-6.43524 0,-2.68869 -0.88154,-4.93662 -0.88154,-2.29201 -2.46831,-3.96693 -1.58677,-1.719 -3.74655,-2.64462 -2.11569,-0.92562 -4.71624,-0.92562 -3.39392,0 -6.08262,1.63085 -2.64462,1.58677 -4.18732,4.4077 -1.49861,2.82093 -1.49861,6.43524 0,2.6887 0.88154,4.9807 0.88154,2.29201 2.46831,4.01101 1.58677,1.67493 3.74654,2.60054 2.15978,0.92562 4.67216,0.92562 z m 21.42146,2.6887 v -30.32498 h 2.292 l 0.92562,3.8347 v 26.49028 z m 20.98065,0 -19.17349,-26.00543 0.48484,-4.31955 19.12942,26.00543 z m 0,0 -0.96969,-3.65839 v -26.66659 h 3.26169 v 30.32498 z"
         id="text1-5"
         transform="scale(0.99825236,1.0017507)"
         aria-label="NON" />
      <path
         style="font-weight:300;font-size:44.077px;font-family:Outfit;-inkscape-font-specification:'Outfit Light';stroke-width:1.00175"
         d="m 224.31847,281.93876 q -3.52616,0 -6.08263,-1.32231 -2.55646,-1.36639 -4.49585,-3.79063 l 2.24793,-2.20385 q 1.54269,2.15978 3.57023,3.21762 2.07162,1.05785 4.89255,1.05785 2.90908,0 4.71624,-1.32231 1.80716,-1.32231 1.80716,-3.65839 0,-1.80716 -0.83747,-2.95316 -0.83746,-1.19008 -2.20385,-1.89531 -1.32231,-0.74931 -2.95316,-1.32231 -1.63084,-0.573 -3.26169,-1.19008 -1.58678,-0.66115 -2.95316,-1.63085 -1.36639,-0.96969 -2.20385,-2.46831 -0.79339,-1.49862 -0.79339,-3.8347 0,-2.46831 1.19008,-4.23139 1.19008,-1.76308 3.2617,-2.6887 2.07162,-0.96969 4.71624,-0.96969 2.95316,0 5.24516,1.146 2.33608,1.146 3.87878,3.08539 l -2.20385,2.20385 q -1.41047,-1.67492 -3.08539,-2.55646 -1.67493,-0.88154 -3.92286,-0.88154 -2.64462,0 -4.23139,1.23415 -1.58677,1.23416 -1.58677,3.43801 0,1.719 0.79339,2.77685 0.83746,1.05785 2.20385,1.76308 1.36638,0.70523 2.95315,1.27823 1.63085,0.52893 3.2617,1.19008 1.63085,0.66116 2.95316,1.67493 1.36639,1.01377 2.20385,2.60054 0.83746,1.54269 0.83746,3.96693 0,3.92285 -2.68869,6.1267 -2.64462,2.15978 -7.22863,2.15978 z m 22.92,-0.44077 v -29.48752 h 3.2617 v 29.48752 z m -10.66663,-27.37182 v -2.95316 h 24.59496 v 2.95316 z m 41.34429,27.81259 q -3.21762,0 -5.99447,-1.19008 -2.73277,-1.23416 -4.80439,-3.34986 -2.07162,-2.15977 -3.2617,-4.9807 -1.146,-2.865 -1.146,-6.1267 0,-3.30577 1.146,-6.1267 1.146,-2.82093 3.21762,-4.93663 2.07162,-2.11569 4.80439,-3.30577 2.73278,-1.19008 5.9504,-1.19008 3.21762,0 5.95039,1.19008 2.77685,1.19008 4.84847,3.30577 2.07162,2.1157 3.21762,4.98071 1.14601,2.82092 1.14601,6.1267 0,3.2617 -1.14601,6.1267 -1.146,2.82093 -3.21762,4.93662 -2.02754,2.1157 -4.76031,3.34986 -2.73278,1.19008 -5.9504,1.19008 z m -0.0881,-3.12947 q 3.438,0 6.08262,-1.63085 2.6887,-1.63085 4.18732,-4.45178 1.54269,-2.82093 1.54269,-6.43524 0,-2.6887 -0.88154,-4.93662 -0.88154,-2.29201 -2.46831,-3.96693 -1.58677,-1.71901 -3.74654,-2.64462 -2.1157,-0.92562 -4.71624,-0.92562 -3.39393,0 -6.08263,1.63085 -2.64462,1.58677 -4.18731,4.4077 -1.49862,2.82093 -1.49862,6.43524 0,2.6887 0.88154,4.9807 0.88154,2.29201 2.46831,4.01101 1.58677,1.67492 3.74655,2.60054 2.15977,0.92562 4.67216,0.92562 z m 23.49307,-9.47656 v -2.865 h 8.94763 q 1.85123,0 3.30577,-0.74931 1.49862,-0.74931 2.33608,-2.1157 0.88154,-1.41046 0.88154,-3.34985 0,-1.93939 -0.88154,-3.30577 -0.83746,-1.41047 -2.33608,-2.15978 -1.45454,-0.79338 -3.30577,-0.79338 h -8.94763 v -2.82093 h 9.16801 q 2.73278,0 4.89255,1.146 2.15977,1.10193 3.39393,3.12947 1.27823,2.02754 1.27823,4.80439 0,2.73278 -1.27823,4.80439 -1.23416,2.02755 -3.39393,3.17355 -2.15977,1.10192 -4.89255,1.10192 z m -2.07162,12.16526 v -30.32498 h 3.21762 v 30.32498 z"
         id="text1-5-2"
         transform="scale(0.99825236,1.0017507)"
         aria-label="STOP" />
      <text
         font-family="'Bahnschrift Light', 'Bahnschrift Light_MSFontService', sans-serif"
         font-weight="300"
         font-size="44px"
         transform="translate(312.211,283)"
         id="text2-0" />
      <path
         style="font-weight:300;font-size:34.6106px;font-family:Outfit;-inkscape-font-specification:'Outfit Light';stroke-width:1.0488"
         d="m 87.229888,313.51697 v -2.35352 h 6.991341 q 2.803459,0 4.949316,-1.21137 2.145855,-1.24599 3.357225,-3.39184 1.21137,-2.18047 1.21137,-4.98393 0,-2.80346 -1.21137,-4.94931 -1.21137,-2.14586 -3.357225,-3.35723 -2.145857,-1.24598 -4.949316,-1.24598 h -6.92212 v -2.31891 h 6.991342 q 2.595794,0 4.776262,0.89987 2.215077,0.86527 3.841777,2.49196 1.66131,1.59209 2.56118,3.77256 0.89988,2.14586 0.89988,4.74165 0,2.52658 -0.89988,4.70704 -0.89987,2.18047 -2.52657,3.80717 -1.6267,1.59209 -3.841776,2.49196 -2.180468,0.89988 -4.741652,0.89988 z m -1.557477,0 v -23.81209 h 2.526574 v 23.81209 z m 25.577249,0 v -23.81209 h 2.52657 v 23.81209 z m 1.6613,0 v -2.31891 h 14.0173 v 2.31891 z m 0,-11.07539 v -2.24969 h 12.90976 v 2.24969 z m 0,-10.41779 v -2.31891 h 13.80963 v 2.31891 z m 24.6774,21.83928 q -2.76885,0 -4.77626,-1.03831 -2.00742,-1.07293 -3.53028,-2.97652 l 1.76514,-1.73053 q 1.21137,1.69592 2.80346,2.52658 1.62669,0.83065 3.84177,0.83065 2.2843,0 3.70334,-1.03832 1.41903,-1.03831 1.41903,-2.87268 0,-1.41903 -0.6576,-2.31891 -0.6576,-0.93448 -1.73053,-1.48825 -1.03832,-0.58838 -2.31891,-1.03832 -1.28059,-0.44994 -2.56118,-0.93449 -1.24599,-0.51915 -2.31892,-1.28059 -1.07292,-0.76143 -1.73053,-1.93819 -0.62299,-1.17676 -0.62299,-3.01112 0,-1.9382 0.93449,-3.32262 0.93449,-1.38442 2.56118,-2.11125 1.6267,-0.76143 3.70334,-0.76143 2.31891,0 4.11866,0.89987 1.83436,0.89988 3.04573,2.42275 l -1.73053,1.73053 q -1.10754,-1.31521 -2.42274,-2.00742 -1.3152,-0.69221 -3.08034,-0.69221 -2.07664,0 -3.32262,0.9691 -1.24598,0.96909 -1.24598,2.69962 0,1.34982 0.62299,2.18047 0.6576,0.83066 1.73053,1.38443 1.07293,0.55376 2.31891,1.0037 1.28059,0.41533 2.56118,0.93449 1.2806,0.51916 2.31891,1.3152 1.07293,0.79605 1.73053,2.04203 0.65761,1.21137 0.65761,3.11495 0,3.08034 -2.11125,4.81087 -2.07664,1.69592 -5.67614,1.69592 z m 17.99748,-0.3461 v -23.15449 h 2.56118 v 23.15449 z m -8.37577,-21.49318 v -2.31891 h 19.31272 v 2.31891 z m 23.63904,21.49318 v -23.81209 h 2.52657 v 23.81209 z m 8.61806,0 v -23.81209 h 1.79975 l 0.72683,3.01112 v 20.80097 z m 16.47465,0 -15.05561,-20.42026 0.38071,-3.39183 15.021,20.42025 z m 0,0 -0.76143,-2.87268 v -20.93941 h 2.56118 v 23.81209 z m 6.09143,0 9.76019,-23.81209 h 1.90358 l 9.65636,23.81209 h -2.73424 l -8.41038,-21.04325 h 1.00371 l -8.4796,21.04325 z m 4.46476,-6.1953 v -2.24969 h 12.45982 v 2.24969 z m 24.12365,6.1953 v -23.15449 h 2.56118 v 23.15449 z m -8.37577,-21.49318 v -2.31891 h 19.31272 v 2.31891 z m 23.63905,21.49318 v -23.81209 h 2.52657 v 23.81209 z m 19.34734,0.3461 q -2.52658,0 -4.70704,-0.93448 -2.14586,-0.9691 -3.77256,-2.63041 -1.6267,-1.69592 -2.56118,-3.911 -0.89988,-2.24968 -0.89988,-4.81087 0,-2.59579 0.89988,-4.81087 0.89987,-2.21508 2.52657,-3.87639 1.6267,-1.66131 3.77256,-2.59579 2.14585,-0.93449 4.67243,-0.93449 2.52657,0 4.67243,0.93449 2.18047,0.93448 3.80716,2.59579 1.6267,1.66131 2.52658,3.911 0.89987,2.21508 0.89987,4.81087 0,2.56119 -0.89987,4.81087 -0.89988,2.21508 -2.52658,3.87639 -1.59208,1.66131 -3.73794,2.63041 -2.14586,0.93448 -4.67243,0.93448 z m -0.0692,-2.45735 q 2.69962,0 4.77626,-1.28059 2.11125,-1.28059 3.28801,-3.49567 1.21137,-2.21508 1.21137,-5.05315 0,-2.11125 -0.69221,-3.87639 -0.69222,-1.79975 -1.9382,-3.11495 -1.24598,-1.34981 -2.9419,-2.07664 -1.66131,-0.72682 -3.70333,-0.72682 -2.66502,0 -4.77627,1.28059 -2.07663,1.24599 -3.288,3.46106 -1.17676,2.21508 -1.17676,5.05315 0,2.11125 0.69221,3.911 0.69221,1.79975 1.93819,3.14956 1.24598,1.31521 2.9419,2.04203 1.69592,0.72682 3.66873,0.72682 z m 16.82077,2.11125 v -23.81209 h 1.79975 l 0.72682,3.01112 v 20.80097 z m 16.47464,0 -15.05561,-20.42026 0.38072,-3.39183 15.021,20.42025 z m 0,0 -0.76143,-2.87268 v -20.93941 h 2.56118 v 23.81209 z m 13.94804,0.3461 q -2.76885,0 -4.77627,-1.03831 -2.00741,-1.07293 -3.53028,-2.97652 l 1.76514,-1.73053 q 1.21137,1.69592 2.80346,2.52658 1.6267,0.83065 3.84178,0.83065 2.2843,0 3.70333,-1.03832 1.41904,-1.03831 1.41904,-2.87268 0,-1.41903 -0.6576,-2.31891 -0.65761,-0.93448 -1.73053,-1.48825 -1.03832,-0.58838 -2.31891,-1.03832 -1.2806,-0.44994 -2.56119,-0.93449 -1.24598,-0.51915 -2.31891,-1.28059 -1.07293,-0.76143 -1.73053,-1.93819 -0.62299,-1.17676 -0.62299,-3.01112 0,-1.9382 0.93449,-3.32262 0.93448,-1.38442 2.56118,-2.11125 1.6267,-0.76143 3.70333,-0.76143 2.31891,0 4.11867,0.89987 1.83436,0.89988 3.04573,2.42275 l -1.73053,1.73053 q -1.10754,-1.31521 -2.42274,-2.00742 -1.31521,-0.69221 -3.08035,-0.69221 -2.07663,0 -3.32261,0.9691 -1.24599,0.96909 -1.24599,2.69962 0,1.34982 0.623,2.18047 0.6576,0.83066 1.73053,1.38443 1.07292,0.55376 2.31891,1.0037 1.28059,0.41533 2.56118,0.93449 1.28059,0.51916 2.31891,1.3152 1.07293,0.79605 1.73053,2.04203 0.6576,1.21137 0.6576,3.11495 0,3.08034 -2.11125,4.81087 -2.07663,1.69592 -5.67613,1.69592 z"
         id="text3"
         transform="scale(0.99683802,1.003172)"
         aria-label="DESTINATIONS" />
      <g
         id="g1"
         transform="translate(4,-2)">
        <path
           d="M 0.833333,-1.3112e-6 0.833428,60.058 H -0.833239 L -0.833333,1.3112e-6 Z M 4.00009,58.7246 l -3.999985013,8 -4.000014987,-8 z"
           transform="matrix(1,0,0,-1,183,285.725)"
           id="path3-2" />
        <path
           d="M 0.833333,-1.81383e-6 0.833424,41.5679 H -0.833243 L -0.833333,1.81383e-6 Z M 4.00009,40.2345 1.04987e-4,48.2345 -3.99991,40.2346 Z"
           transform="matrix(1,0,0,-1,199,285.235)"
           id="path4-0" />
        <path
           d="m 179.5,255.5 h 23.811"
           stroke="#000000"
           stroke-width="3"
           stroke-miterlimit="8"
           fill="none"
           fill-rule="evenodd"
           id="path5-7" />
        <path
           d="m 179.5,264.5 h 23.811"
           stroke="#000000"
           stroke-width="3"
           stroke-miterlimit="8"
           fill="none"
           fill-rule="evenodd"
           id="path6-2" />
        <path
           d="m 179.5,273.5 h 23.811"
           stroke="#000000"
           stroke-width="3"
           stroke-miterlimit="8"
           fill="none"
           fill-rule="evenodd"
           id="path7-8" />
        <path
           d="m 179.5,281.5 h 23.811"
           stroke="#000000"
           stroke-width="3"
           stroke-miterlimit="8"
           fill="none"
           fill-rule="evenodd"
           id="path8" />
      </g>
    </g>
  </g>
</svg>
